<svg version="1.2" xmlns="http://www.w3.org/2000/svg" viewBox="79 115 342 282" width="342" height="282"><style>.a{fill:#fff}</style><path class="a" d="m364.6 251.9c-0.4-3.9-4.5-6.3-5.4-9.9-5.6-20.2-23.2-31.6-31-40.2-2-2.2-2.7-2.8-4.6-4.9-1.7-2-2.5-2.5-9.4-3-7-0.6-12.1-0.9-14.1-1-2-0.2-3.7 0.3-4.7 2.8-1.2 2.7-3.3 9-3.7 10.5-0.4 1.8 0.6 3.8 3.4 3.1 0 2 2.3 2.7 4.3 1.6 0.5 1.6 2.9 2.1 5.2 0.4 0 0 0.3 1.4 1.9 1.5 1.7 0.1 4.4-1.3 6.4-2.1 0.4-0.1 0.6-0.3 0.8-0.6 2 1 4.5 0.3 4.5 0.3 3.3 1.6 8.3 7.8 9.7 16.9 1.4 9.1 4.1 15.2 7.9 20.2-3.9 1.8-12.9-4.9-23.5 3.8 0 0-9.4-3.1-20.9-0.3-7 1.8-11.5 5.7-13.4 7.6-1.5-0.9-6.3-2.1-8.5-2.5-2.4-0.4-4-2.5-3.8-4.8 0.3-4.7 1.1-10.4 1.3-11.6 0.8-1.4 1.3-3 1.4-4.9 0.7 0.4 1.5 0.6 2.2 0.3 1.7-0.7 1.2-3 2.3-5.4 1.8-3.7 2.7-7.9 0-8.7 0.6-6.6 0.1-17.7-5-22.9-5.2-5.2-12.7-7.3-17.9-7.3-5.2 0-12.7 2.1-17.9 7.3-5.1 5.2-5.6 16.3-5 22.9-2.7 0.8-1.8 5 0 8.7 1.1 2.4 0.6 4.7 2.3 5.4 0.7 0.3 1.5 0.1 2.2-0.3 0.1 1.9 0.6 3.5 1.4 4.9 0.2 1.2 1 6.9 1.3 11.6 0.2 2.3-1.4 4.4-3.8 4.8-2.2 0.4-7 1.6-8.5 2.5-1.9-1.9-6.4-5.8-13.4-7.6-11.5-2.8-20.9 0.3-20.9 0.3-10.6-8.7-19.6-2-23.5-3.8 3.8-5 6.5-11.1 7.9-20.2 1.4-9.1 6.4-15.3 9.7-16.9 0 0 2.5 0.7 4.5-0.3 0.2 0.3 0.4 0.5 0.8 0.6 2 0.8 4.7 2.2 6.4 2.1 1.6-0.1 1.9-1.5 1.9-1.5 2.3 1.7 4.7 1.2 5.2-0.4 2 1.1 4.3 0.4 4.3-1.6 2.8 0.7 3.8-1.3 3.4-3.1-0.4-1.5-2.5-7.8-3.7-10.5-1-2.5-2.7-3-4.7-2.8-2 0.1-7.1 0.4-14.1 1-6.9 0.5-7.7 1-9.4 3-1.9 2.1-2.6 2.7-4.6 4.9-7.8 8.6-25.4 20-31 40.2-0.9 3.6-5 6-5.4 9.9-0.4 3.8 2.4 7.4 10.8 11.2 13.3 17.2 22.5 18.6 35.1 19.7 4.3 0.3 7.5 1.2 10 7.2 4.1 10.3 6.6 18.1 14 26.8 6.9 8.1 10.5 27.1 10.5 27.1h34.2 34.2c0 0 3.6-19 10.5-27.1 7.4-8.7 9.9-16.5 14-26.8 2.5-6 5.7-6.9 10-7.2 12.6-1.1 21.8-2.5 35.1-19.7 8.4-3.8 11.2-7.4 10.8-11.2z"/><path class="a" d="m185 131.2l-1.6-3.8 2-0.8 1.6 3.8z"/><path class="a" d="m206.1 182l-3-7.2 1.9-0.8 3 7.2zm-4.2-10.2l-3-7.1 1.9-0.8 3 7.1zm-4.2-10.1l-3-7.2 1.9-0.8 3 7.2zm-4.2-10.1l-3-7.2 1.9-0.8 3 7.2zm-4.2-10.2l-3-7.2 2-0.8 2.9 7.2z"/><path class="a" d="m208.9 188.8l-1.6-3.8 1.9-0.8 1.6 3.8z"/><path class="a" d="m147.4 153.3l-2.6-3.3 1.7-1.3 2.5 3.3z"/><path class="a" d="m174.1 188.2l-4.7-6.2 1.6-1.2 4.8 6.1zm-6.7-8.7l-4.8-6.2 1.7-1.2 4.7 6.1zm-6.7-8.7l-4.7-6.1 1.7-1.3 4.7 6.1zm-6.7-8.7l-4.7-6.1 1.6-1.3 4.7 6.2z"/><path class="a" d="m116.7 184.4l-3.3-2.6 1.2-1.6 3.3 2.5z"/><path class="a" d="m151.5 211.1l-6.1-4.7 1.2-1.6 6.2 4.7zm-8.7-6.7l-6.2-4.7 1.3-1.7 6.1 4.7zm-8.7-6.6l-6.1-4.8 1.2-1.6 6.2 4.7zm-8.7-6.7l-6.2-4.7 1.3-1.7 6.1 4.8z"/><path class="a" d="m95.1 222.3l-3.9-1.6 0.8-1.9 3.9 1.6z"/><path class="a" d="m135.7 239.1l-7.2-2.9 0.8-1.9 7.2 2.9zm-10.2-4.2l-7.1-3 0.7-1.9 7.2 3zm-10.1-4.2l-7.2-3 0.8-1.9 7.2 3zm-10.2-4.2l-7.2-3 0.8-1.9 7.2 3z"/><path class="a" d="m84 264.6l-4.1-0.6 0.3-2 4.1 0.5z"/><path class="a" d="m138.5 271.7l-7.7-1 0.3-2 7.7 1zm-10.9-1.5l-7.7-1 0.3-2 7.6 1zm-10.8-1.4l-7.7-1.1 0.2-2 7.7 1zm-10.9-1.4l-7.7-1.1 0.3-2 7.7 1zm-10.9-1.4l-7.7-1 0.3-2.1 7.7 1z"/><path class="a" d="m145.8 272.7l-4.1-0.5 0.3-2.1 4.1 0.5z"/><path class="a" d="m80.2 308.8l-0.3-2.1 4.1-0.5 0.3 2z"/><path class="a" d="m87.6 307.8l-0.2-2.1 7.9-1 0.3 2zm11.3-1.4l-0.2-2.1 7.9-1.1 0.3 2.1zm11.3-1.5l-0.2-2 7.9-1.1 0.3 2.1zm11.3-1.5l-0.2-2.1 7.9-1 0.3 2zm11.3-1.5l-0.2-2 7.9-1.1 0.3 2.1zm11.3-1.5l-0.2-2.1 7.9-1 0.3 2zm11.3-1.4l-0.2-2.1 7.9-1.1 0.3 2.1z"/><path class="a" d="m109.5 344.7l-0.8-1.9 7.5-3.1 0.8 1.9zm10.5-4.4l-0.8-1.9 7.4-3.1 0.8 2zm10.6-4.4l-0.8-1.9 7.4-3.1 0.8 1.9zm10.6-4.4l-0.8-1.9 7.4-3.1 0.8 2zm10.5-4.4l-0.7-1.9 7.4-3.1 0.8 1.9zm10.5-4.4l-0.8-1.9 7.5-3.1 0.8 2zm10.5-4.4l-0.8-1.9 7.5-3.1 0.8 1.9z"/><path class="a" d="m174.9 344.3l-1.3-1.7 6.4-4.9 1.3 1.7zm9.1-7l-1.3-1.6 6.4-4.9 1.2 1.6z"/><path class="a" d="m227.1 119.7l-0.5-4.1 2.1-0.3 0.5 4.1z"/><path class="a" d="m234.3 174.1l-1-7.7 2.1-0.2 1 7.7zm-1.5-10.9l-1-7.7 2.1-0.3 1 7.7zm-1.4-10.9l-1.1-7.7 2.1-0.2 1 7.6zm-1.4-10.9l-1-7.6 2-0.3 1 7.7zm-1.4-10.9l-1-7.7 2.1-0.3 1 7.7z"/><path class="a" d="m235.3 181.5l-0.6-4.2 2.1-0.2 0.5 4.1z"/><path class="a" d="m251 130.8h-2v-4.2h2z"/><path class="a" d="m251 170.9h-2v-9.4h2zm0-13.4h-2v-9.5h2zm0-13.3h-2v-9.5h2z"/><path class="a" d="m251 179h-2v-4.1h2z"/><path class="a" d="m209 136.3l-1.1-4 2-0.5 1.1 4z"/><path class="a" d="m219.4 175.1l-2.5-9.1 2-0.6 2.5 9.2zm-3.5-13l-2.4-9.1 2-0.5 2.4 9.1zm-3.4-12.9l-2.5-9.2 2-0.5 2.5 9.1z"/><path class="a" d="m221.5 182.9l-1.1-4 2-0.5 1.1 4z"/><path class="a" d="m171.8 152l-2.1-3.6 1.8-1 2.1 3.6z"/><path class="a" d="m191.9 186.8l-4.7-8.2 1.8-1 4.7 8.1zm-6.7-11.5l-4.7-8.2 1.8-1.1 4.7 8.2zm-6.7-11.6l-4.7-8.2 1.8-1 4.7 8.2z"/><path class="a" d="m139.9 176.8l-2.9-3 1.5-1.4 2.9 2.9z"/><path class="a" d="m163.5 200.3l-1.8-1.8 1.4-1.5 1.8 1.8zm-4.6-4.5l-6.6-6.7 1.4-1.5 6.7 6.7zm-9.5-9.5l-6.6-6.7 1.4-1.4 6.7 6.6z"/><path class="a" d="m115.6 209l-3.6-2.1 1-1.8 3.6 2.1z"/><path class="a" d="m138.8 222.4l-8.2-4.8 1-1.8 8.2 4.8zm-11.6-6.7l-8.2-4.8 1.1-1.8 8.2 4.8z"/><path class="a" d="m100.4 246.4l-4-1.1 0.5-2 4 1.1z"/><path class="a" d="m126.3 253.3l-9.2-2.5 0.6-2 9.1 2.5zm-12.9-3.5l-9.2-2.4 0.6-2 9.1 2.4z"/><path class="a" d="m95.4 286.4h-4.2v-2.1h4.2z"/><path class="a" d="m145.2 286.4h-8.8v-2.1h8.8zm-12.4 0h-8.8v-2h8.8zm-12.5 0h-8.8v-2.1h8.8zm-12.4 0h-8.8v-2.1h8.8z"/><path class="a" d="m153 286.4h-4.1v-2.1h4.1z"/><path class="a" d="m96.9 327.5l-0.5-2 4-1.1 0.5 2z"/><path class="a" d="m104.4 325.5l-0.5-2 8.3-2.3 0.6 2zm11.8-3.1l-0.6-2.1 8.4-2.2 0.5 2zm11.8-3.1l-0.5-2.1 8.3-2.2 0.6 2zm11.8-3.2l-0.5-2 8.3-2.2 0.5 2zm11.9-3.2l-0.6-2 8.4-2.2 0.5 2zm11.8-3.2l-0.5-2 8.3-2.2 0.6 2z"/><path class="a" d="m151.5 343.4l-1-1.8 7.5-4.3 1 1.8zm10.6-6.1l-1-1.8 7.5-4.3 1 1.8zm10.6-6.2l-1-1.8 7.4-4.3 1.1 1.8z"/><path class="a" d="m315 131.2l-2-0.8 1.6-3.8 2 0.8z"/><path class="a" d="m293.9 182l-1.9-0.8 3-7.2 1.9 0.8zm4.2-10.1l-1.9-0.8 3-7.2 1.9 0.8zm4.2-10.1l-1.9-0.8 2.9-7.2 2 0.8zm4.2-10.2l-2-0.8 3-7.1 1.9 0.8zm4.2-10.2l-1.9-0.8 3-7.1 1.9 0.8z"/><path class="a" d="m291.1 188.8l-1.9-0.8 1.6-3.8 1.9 0.8z"/><path class="a" d="m352.6 153.3l-1.6-1.3 2.5-3.3 1.7 1.3z"/><path class="a" d="m325.9 188.2l-1.7-1.3 4.8-6.1 1.6 1.2zm6.7-8.7l-1.6-1.3 4.7-6.1 1.6 1.2zm6.7-8.7l-1.6-1.2 4.7-6.2 1.6 1.3zm6.7-8.7l-1.6-1.3 4.7-6.2 1.6 1.3z"/><path class="a" d="m383.3 184.4l-1.2-1.7 3.3-2.5 1.2 1.6z"/><path class="a" d="m348.5 211.1l-1.3-1.6 6.2-4.7 1.2 1.6zm8.7-6.7l-1.2-1.6 6.1-4.8 1.3 1.7zm8.7-6.7l-1.3-1.6 6.2-4.8 1.3 1.7zm8.7-6.7l-1.3-1.6 6.2-4.8 1.2 1.7z"/><path class="a" d="m404.9 222.3l-0.8-1.9 3.9-1.6 0.8 1.9z"/><path class="a" d="m364.3 239.1l-0.8-1.9 7.2-2.9 0.8 1.9zm10.1-4.2l-0.8-2 7.2-2.9 0.8 1.9zm10.2-4.2l-0.8-1.9 7.1-3 0.8 1.9zm10.2-4.2l-0.8-1.9 7.1-3 0.8 2z"/><path class="a" d="m416 264.6l-0.3-2.1 4.1-0.5 0.3 2z"/><path class="a" d="m361.5 271.7l-0.3-2 7.7-1 0.3 2zm10.9-1.4l-0.3-2.1 7.7-1 0.3 2.1zm10.9-1.5l-0.3-2 7.7-1 0.3 2zm10.8-1.4l-0.2-2.1 7.7-1 0.2 2.1zm10.9-1.4l-0.2-2.1 7.6-1 0.3 2z"/><path class="a" d="m354.2 272.7l-0.3-2.1 4.1-0.5 0.3 2.1z"/><path class="a" d="m419.8 308.8l-4.1-0.6 0.3-2 4.1 0.5z"/><path class="a" d="m412.4 307.8l-8-1.1 0.3-2 7.9 1zm-11.3-1.5l-8-1 0.3-2.1 8 1.1zm-11.3-1.5l-8-1.1 0.3-2 8 1zm-11.4-1.5l-7.9-1 0.2-2.1 8 1.1zm-11.3-1.5l-8-1.1 0.3-2 8 1zm-11.3-1.5l-8-1 0.2-2.1 8 1.1zm-11.3-1.5l-8-1.1 0.3-2 8 1z"/><path class="a" d="m390.5 344.7l-7.5-3.1 0.8-1.9 7.5 3.1zm-10.6-4.4l-7.4-3.1 0.8-1.9 7.4 3.1zm-10.5-4.4l-7.4-3.1 0.7-1.9 7.5 3.1zm-10.6-4.4l-7.4-3.1 0.8-1.9 7.4 3.1zm-10.5-4.4l-7.4-3 0.8-2 7.4 3.1zm-10.5-4.3l-7.5-3.1 0.8-1.9 7.4 3zm-10.5-4.3l-7.4-3.1 0.8-1.9 7.4 3.1z"/><path class="a" d="m325.1 344.3l-6.4-4.9 1.3-1.7 6.4 4.9zm-9.1-6.9l-6.4-4.9 1.3-1.7 6.4 5z"/><path class="a" d="m272.9 119.7l-2.1-0.3 0.5-4.1 2.1 0.3z"/><path class="a" d="m265.7 174.1l-2.1-0.2 1-7.7 2.1 0.2zm1.4-10.8l-2-0.3 1-7.7 2.1 0.3zm1.4-10.9l-2.1-0.3 1-7.7 2.1 0.3zm1.4-10.9l-2-0.3 1-7.7 2 0.3zm1.5-10.9l-2.1-0.3 1-7.6 2.1 0.2z"/><path class="a" d="m264.7 181.5l-2-0.3 0.5-4.1 2.1 0.2z"/><path class="a" d="m291 136.3l-2-0.5 1.1-4 2 0.5z"/><path class="a" d="m280.6 175.1l-2-0.5 2.5-9.2 2 0.6zm3.4-13l-2-0.5 2.5-9.1 2 0.5zm3.4-12.9l-2-0.6 2.5-9.1 2 0.5z"/><path class="a" d="m278.5 182.9l-2-0.5 1.1-4 2 0.5z"/><path class="a" d="m328.2 152l-1.8-1 2.1-3.6 1.8 1z"/><path class="a" d="m308.1 186.8l-1.8-1.1 4.7-8.1 1.8 1zm6.7-11.6l-1.8-1 4.8-8.2 1.8 1zm6.7-11.6l-1.8-1 4.7-8.2 1.8 1z"/><path class="a" d="m360.1 176.8l-1.5-1.5 2.9-2.9 1.5 1.4z"/><path class="a" d="m336.6 200.2l-1.4-1.5 1.7-1.7 1.4 1.5zm4.5-4.5l-1.5-1.4 6.7-6.7 1.5 1.5zm9.5-9.5l-1.5-1.5 6.7-6.7 1.4 1.5z"/><path class="a" d="m384.4 209l-1-1.8 3.6-2.1 1 1.8z"/><path class="a" d="m361.2 222.4l-1-1.8 8.2-4.8 1 1.8zm11.6-6.7l-1-1.8 8.1-4.7 1.1 1.8z"/><path class="a" d="m399.6 246.4l-0.5-2 4-1.1 0.5 2z"/><path class="a" d="m373.7 253.3l-0.5-2 9.1-2.5 0.6 2zm12.9-3.4l-0.5-2 9.1-2.5 0.5 2z"/><path class="a" d="m408.8 286.4h-4.2v-2.1h4.2z"/><path class="a" d="m400.9 286.4h-8.8v-2.1h8.8zm-12.4 0h-8.8v-2h8.8zm-12.5 0h-8.8v-2.1h8.8zm-12.4 0h-8.8v-2.1h8.8z"/><path class="a" d="m351.1 286.4h-4.1v-2.1h4.1z"/><path class="a" d="m403.1 327.5l-4-1.1 0.5-2 4 1.1z"/><path class="a" d="m395.6 325.5l-8.4-2.3 0.6-2 8.3 2.3zm-11.8-3.2l-8.3-2.3 0.5-2 8.3 2.3zm-11.8-3.2l-8.3-2.2 0.5-2 8.4 2.2zm-11.9-3.2l-8.3-2.2 0.5-2 8.4 2.2zm-11.8-3.1l-8.4-2.3 0.6-2 8.3 2.3zm-11.8-3.2l-8.4-2.2 0.6-2.1 8.3 2.3z"/><path class="a" d="m348.5 343.4l-7.5-4.3 1-1.8 7.5 4.3zm-10.6-6.1l-7.5-4.3 1.1-1.8 7.4 4.3zm-10.6-6.1l-7.4-4.3 1-1.8 7.5 4.3z"/><path class="a" d="m117.3 371.8q0-2.8-1.9-4.2-1.9-1.5-5.3-1.5-1 0-1.9 0.1-0.9 0.1-1.6 0.2-0.8 0.2-1.5 0.3v10.1h4.9q1.7 0 3.1-0.2 1.4-0.2 2.3-0.8 1-0.5 1.4-1.5 0.5-1 0.5-2.5zm-12.2 12v13.2h-9.5v-35.6q0 0 1-0.3 1.2-0.3 3.2-0.7 2-0.4 4.8-0.7 2.8-0.3 6.2-0.3 3.7 0 6.5 0.9 3 0.8 5 2.4 2.1 1.6 3.2 3.9 1.1 2.2 1.1 5 0 3.6-1.2 6-1.2 2.3-3.2 3.7-1.9 1.4-4.4 2-2.6 0.5-5.3 0.5-0.6 0-1.8 0-1.2 0-2.5 0-1.2 0-2.1 0-1 0-1 0zm57.1-23.6v21.6q0 8-3.9 12-3.8 4-12.1 4-8.4 0-12.2-4-3.8-4-3.8-12v-21.6h9.5v22.3q0 1.8 0.3 3.3 0.4 1.5 1.2 2.6 0.7 1 2 1.7 1.2 0.6 3 0.6 1.7 0 3-0.6 1.2-0.7 2-1.7 0.7-1.1 1-2.6 0.4-1.5 0.4-3.3v-22.3zm4.9 10q0-2.9 1.5-4.9 1.5-2.1 3.7-3.4 2.3-1.2 4.9-1.8 2.7-0.6 5.1-0.6 4.3 0 7.7 0.6 3.5 0.6 5.5 1.1 0 0 0 0.7 0 0.6 0 1.6 0 0.9 0 2 0 1.1-0.1 2.1 0 0.9 0 1.5 0 0.6 0 0.6-0.9-0.6-2.4-1.2-1.4-0.6-3.1-1-1.6-0.5-3.4-0.8-1.7-0.3-3.2-0.3-0.9 0-2 0.1-1.2 0-2.3 0.3-1 0.2-1.8 0.9-0.7 0.6-0.7 1.8 0 1.5 1.6 2.4 1.5 0.9 3.8 1.7 2.3 0.8 5 1.7 2.6 0.9 4.9 2.2 2.3 1.4 3.9 3.5 1.5 2 1.5 5.2 0 3-1.2 5.2-1.2 2.2-3.4 3.6-2.2 1.4-5.2 2.1-3 0.7-6.6 0.7-3.3 0-6.1-0.4-2.8-0.4-4.8-0.9-2-0.5-3.2-0.9-1.1-0.4-1.1-0.4 0 0 0-0.4 0-0.3 0-0.9 0-0.7 0-1.5 0-0.8 0-1.7 0-2 0.1-4.5 0.9 0.5 2.5 1.2 1.6 0.8 3.5 1.5 1.9 0.7 4 1.3 2.2 0.6 4.3 0.6 0.7 0 2 0 1.4-0.1 2.6-0.5 1.3-0.4 2.2-1.1 0.9-0.8 0.9-2.1 0-1.4-1.6-2.2-1.5-0.9-3.8-1.7-2.2-0.8-4.9-1.7-2.6-0.9-5-2.3-2.2-1.5-3.8-3.6-1.5-2.1-1.5-5.4zm34 26.8v-36.8h9.5v14.5h12.7v-14.5h9.5v36.8h-9.5v-15.5h-12.7v15.5zm56.4-18.9l5.9 6.9q0.9-1.1 1.8-2.2 0.9-1.2 1.7-2.5l5.1 5.6q-1.9 2.8-3.8 4.7l3.8 4.3-6.3 5.1-3.8-4.5q-2.5 1.2-5 1.8-2.5 0.5-5 0.5-2.6 0-5.1-0.5-2.6-0.6-4.6-1.8-2-1.3-3.2-3.5-1.3-2.2-1.3-5.4 0-2.1 0.8-3.8 0.7-1.6 1.8-2.9 1.2-1.3 2.7-2.3 1.5-1 3.1-1.8-0.5-0.6-1.1-1.3-0.6-0.7-1.1-1.5-0.4-0.8-0.7-1.8-0.4-1.1-0.4-2.4 0-1.8 0.8-3.5 0.7-1.7 2-3 1.4-1.3 3.3-2.1 2-0.7 4.4-0.7 2.3 0 4.2 0.7 1.9 0.7 3.3 2 1.3 1.2 2.1 2.9 0.8 1.8 0.8 3.9 0 1-0.2 2.2-0.3 1.1-1 2.4-0.7 1.2-1.9 2.3-1.2 1.2-3.1 2.2zm-5.6 12.5q2.6 0 5.1-1.1l-6.8-8.3q-0.7 0.3-1.4 0.7-0.7 0.3-1.3 0.9-0.6 0.6-1 1.4-0.4 0.8-0.4 1.8 0 1.3 0.4 2.1 0.6 0.9 1.3 1.5 0.9 0.5 1.9 0.8 1 0.2 2.2 0.2zm1.6-24.9q-1.2 0-2.1 0.7-0.8 0.8-0.8 2 0 0.9 0.4 1.7 0.4 0.9 0.9 1.5 0.6 0.8 1.3 1.4 0.9-0.5 1.7-1.1 0.6-0.6 1.1-1.4 0.6-0.8 0.6-2 0-1.5-1-2.2-0.9-0.6-2.1-0.6zm44.5 6.1q0-2.8-1.9-4.2-1.9-1.5-5.3-1.5-1 0-1.9 0.1-1 0.1-1.6 0.2-0.9 0.2-1.5 0.3v10.1h4.9q1.7 0 3.1-0.2 1.3-0.2 2.3-0.8 0.9-0.5 1.4-1.5 0.5-1 0.5-2.5zm-12.2 12v13.2h-9.5v-35.6q0 0 1-0.3 1.2-0.3 3.2-0.7 2-0.4 4.8-0.7 2.8-0.3 6.2-0.3 3.6 0 6.5 0.9 3 0.8 5 2.4 2.1 1.6 3.2 3.9 1 2.2 1 5 0 3.6-1.1 6-1.2 2.3-3.2 3.7-1.9 1.4-4.5 2-2.5 0.5-5.2 0.5-0.6 0-1.8 0-1.3 0-2.5 0-1.2 0-2.1 0-1 0-1 0zm57.1-23.6v21.6q0 8-3.9 12-3.8 4-12.1 4-8.4 0-12.2-4-3.9-4-3.9-12v-21.6h9.6v22.3q0 1.8 0.3 3.3 0.4 1.5 1.2 2.6 0.7 1 2 1.7 1.2 0.6 3 0.6 1.7 0 2.9-0.6 1.3-0.7 2-1.7 0.8-1.1 1.1-2.6 0.4-1.5 0.4-3.3v-22.3zm5.6 36.8v-36.8h9.6v28.6h17.2v8.2zm31.1 0v-36.8h9.5v28.6h17.2v8.2z"/></svg>