<?xml version="1.0" encoding="utf-8"?>
<svg version="1.2" xmlns="http://www.w3.org/2000/svg" viewBox="0 0 314 46" width="342" height="282">
  <style>.a{fill:#fff}</style>
  <path class="a" d="M 24.305 15.099 C 24.305 13.236 23.673 11.839 22.409 10.909 C 21.145 9.911 19.382 9.412 17.121 9.412 C 16.456 9.412 15.824 9.445 15.226 9.512 C 14.627 9.579 14.094 9.644 13.629 9.711 C 13.096 9.844 12.598 9.944 12.133 10.011 L 12.133 20.088 L 17.022 20.088 C 18.152 20.088 19.183 20.021 20.115 19.888 C 21.045 19.756 21.811 19.489 22.409 19.09 C 23.074 18.758 23.54 18.259 23.806 17.593 C 24.138 16.928 24.305 16.096 24.305 15.099 Z M 12.133 27.072 L 12.133 40.242 L 2.654 40.242 L 2.654 4.722 C 2.654 4.722 2.986 4.623 3.652 4.423 C 4.45 4.224 5.514 3.991 6.845 3.725 C 8.175 3.458 9.771 3.226 11.634 3.026 C 13.496 2.827 15.558 2.727 17.82 2.727 C 20.28 2.727 22.442 3.026 24.305 3.625 C 26.301 4.157 27.963 4.955 29.294 6.02 C 30.691 7.084 31.754 8.381 32.487 9.911 C 33.218 11.374 33.584 13.037 33.584 14.9 C 33.584 17.294 33.185 19.29 32.387 20.886 C 31.589 22.416 30.524 23.647 29.194 24.578 C 27.93 25.509 26.466 26.173 24.804 26.573 C 23.074 26.905 21.312 27.072 19.516 27.072 C 19.117 27.072 18.518 27.072 17.72 27.072 C 16.922 27.072 16.09 27.072 15.226 27.072 C 14.427 27.072 13.729 27.072 13.13 27.072 C 12.465 27.072 12.133 27.072 12.133 27.072 Z M 69.104 3.525 L 69.104 25.077 C 69.104 30.398 67.807 34.388 65.213 37.049 C 62.683 39.71 58.661 41.04 53.14 41.04 C 47.553 41.04 43.495 39.71 40.967 37.049 C 38.439 34.388 37.176 30.398 37.176 25.077 L 37.176 3.525 L 46.655 3.525 L 46.655 25.775 C 46.655 26.972 46.754 28.07 46.954 29.068 C 47.219 30.065 47.618 30.93 48.151 31.662 C 48.616 32.327 49.282 32.892 50.147 33.358 C 50.945 33.757 51.943 33.956 53.14 33.956 C 54.27 33.956 55.268 33.757 56.133 33.358 C 56.931 32.892 57.596 32.327 58.129 31.662 C 58.594 30.93 58.927 30.065 59.126 29.068 C 59.392 28.07 59.526 26.972 59.526 25.775 L 59.526 3.525 L 69.104 3.525 Z M 73.993 13.503 C 73.993 11.574 74.492 9.944 75.49 8.614 C 76.487 7.217 77.717 6.086 79.181 5.221 C 80.711 4.423 82.34 3.825 84.069 3.425 C 85.866 3.026 87.561 2.827 89.159 2.827 C 92.018 2.827 94.579 3.026 96.841 3.425 C 99.169 3.825 100.998 4.191 102.329 4.523 C 102.329 4.523 102.329 4.755 102.329 5.221 C 102.329 5.62 102.329 6.152 102.329 6.818 C 102.329 7.415 102.329 8.082 102.329 8.813 C 102.329 9.545 102.294 10.243 102.229 10.909 C 102.229 11.507 102.229 12.006 102.229 12.405 C 102.229 12.804 102.229 13.004 102.229 13.004 C 101.631 12.605 100.832 12.206 99.835 11.807 C 98.903 11.407 97.871 11.075 96.742 10.809 C 95.677 10.477 94.546 10.21 93.349 10.011 C 92.217 9.811 91.154 9.711 90.156 9.711 C 89.558 9.711 88.892 9.744 88.161 9.811 C 87.363 9.811 86.597 9.911 85.866 10.11 C 85.201 10.243 84.602 10.542 84.069 11.008 C 83.604 11.407 83.371 12.006 83.371 12.804 C 83.371 13.802 83.904 14.6 84.968 15.199 C 85.966 15.797 87.229 16.363 88.76 16.895 C 90.289 17.427 91.952 17.993 93.748 18.591 C 95.477 19.19 97.107 19.921 98.637 20.786 C 100.167 21.717 101.464 22.881 102.528 24.278 C 103.525 25.608 104.025 27.338 104.025 29.467 C 104.025 31.462 103.626 33.191 102.827 34.655 C 102.03 36.119 100.897 37.316 99.435 38.247 C 97.972 39.178 96.242 39.876 94.247 40.342 C 92.252 40.808 90.057 41.04 87.662 41.04 C 85.466 41.04 83.438 40.908 81.576 40.641 C 79.713 40.375 78.117 40.076 76.786 39.743 C 75.456 39.411 74.392 39.112 73.594 38.845 C 72.861 38.579 72.496 38.446 72.496 38.446 C 72.496 38.446 72.496 38.314 72.496 38.047 C 72.496 37.848 72.496 37.548 72.496 37.149 C 72.496 36.683 72.496 36.184 72.496 35.653 C 72.496 35.121 72.496 34.555 72.496 33.956 C 72.496 32.626 72.528 31.13 72.596 29.467 C 73.195 29.799 74.026 30.198 75.09 30.664 C 76.154 31.196 77.318 31.695 78.583 32.161 C 79.846 32.626 81.177 33.059 82.574 33.457 C 84.036 33.857 85.466 34.056 86.863 34.056 C 87.328 34.056 87.994 34.056 88.859 34.056 C 89.79 33.989 90.655 33.824 91.453 33.557 C 92.318 33.291 93.05 32.926 93.649 32.46 C 94.247 31.928 94.546 31.23 94.546 30.365 C 94.546 29.434 94.014 28.701 92.95 28.17 C 91.952 27.571 90.688 27.005 89.159 26.473 C 87.695 25.941 86.066 25.376 84.27 24.776 C 82.54 24.179 80.877 23.413 79.281 22.482 C 77.817 21.485 76.552 20.287 75.49 18.891 C 74.492 17.494 73.993 15.698 73.993 13.503 Z M 107.916 40.242 L 107.916 3.525 L 117.394 3.525 L 117.394 17.993 L 130.066 17.993 L 130.066 3.525 L 139.545 3.525 L 139.545 40.242 L 130.066 40.242 L 130.066 24.776 L 117.394 24.776 L 117.394 40.242 L 107.916 40.242 Z M 164.189 21.385 L 170.076 28.269 C 170.675 27.538 171.272 26.806 171.872 26.074 C 172.471 25.276 173.035 24.445 173.568 23.58 L 178.657 29.167 C 177.391 31.03 176.128 32.593 174.865 33.857 L 178.657 38.147 L 172.371 43.236 L 168.579 38.746 C 166.916 39.544 165.253 40.143 163.59 40.542 C 161.927 40.874 160.263 41.04 158.602 41.04 C 156.872 41.04 155.176 40.874 153.512 40.542 C 151.783 40.143 150.254 39.544 148.924 38.746 C 147.593 37.881 146.529 36.717 145.731 35.254 C 144.866 33.79 144.434 31.994 144.434 29.866 C 144.434 28.469 144.699 27.205 145.231 26.074 C 145.696 25.009 146.296 24.046 147.028 23.181 C 147.826 22.316 148.723 21.551 149.721 20.886 C 150.72 20.221 151.75 19.622 152.814 19.09 C 152.482 18.691 152.116 18.259 151.717 17.793 C 151.318 17.327 150.952 16.828 150.62 16.296 C 150.353 15.765 150.121 15.166 149.921 14.5 C 149.655 13.769 149.522 12.971 149.522 12.106 C 149.522 10.909 149.788 9.744 150.321 8.614 C 150.786 7.483 151.451 6.485 152.316 5.62 C 153.247 4.755 154.344 4.057 155.608 3.525 C 156.938 3.059 158.401 2.827 159.999 2.827 C 161.528 2.827 162.925 3.059 164.189 3.525 C 165.451 3.991 166.549 4.656 167.481 5.521 C 168.346 6.319 169.044 7.284 169.577 8.414 C 170.108 9.611 170.375 10.909 170.375 12.305 C 170.375 12.971 170.308 13.702 170.175 14.5 C 169.976 15.232 169.642 16.03 169.177 16.895 C 168.711 17.693 168.08 18.458 167.282 19.19 C 166.484 19.988 165.451 20.719 164.189 21.385 Z M 158.602 33.857 C 160.33 33.857 162.027 33.491 163.69 32.758 L 156.906 24.478 C 156.44 24.677 155.974 24.91 155.509 25.176 C 155.043 25.376 154.61 25.675 154.211 26.074 C 153.813 26.473 153.479 26.939 153.213 27.471 C 152.948 28.003 152.814 28.602 152.814 29.267 C 152.814 30.132 152.948 30.831 153.213 31.362 C 153.613 31.961 154.045 32.46 154.511 32.859 C 155.11 33.191 155.741 33.457 156.407 33.657 C 157.071 33.79 157.804 33.857 158.602 33.857 Z M 160.198 9.013 C 159.4 9.013 158.702 9.245 158.102 9.711 C 157.57 10.243 157.305 10.909 157.305 11.707 C 157.305 12.305 157.437 12.871 157.703 13.403 C 157.969 14.002 158.269 14.5 158.602 14.9 C 159.001 15.431 159.433 15.897 159.899 16.296 C 160.497 15.964 161.062 15.598 161.595 15.199 C 161.994 14.8 162.358 14.334 162.693 13.802 C 163.092 13.27 163.29 12.605 163.29 11.807 C 163.29 10.809 162.958 10.077 162.294 9.611 C 161.695 9.212 160.996 9.013 160.198 9.013 Z M 204.597 15.099 C 204.597 13.236 203.964 11.839 202.702 10.909 C 201.438 9.911 199.675 9.412 197.414 9.412 C 196.749 9.412 196.117 9.445 195.517 9.512 C 194.853 9.579 194.321 9.644 193.922 9.711 C 193.323 9.844 192.824 9.944 192.424 10.011 L 192.424 20.088 L 197.313 20.088 C 198.445 20.088 199.475 20.021 200.406 19.888 C 201.271 19.756 202.036 19.489 202.702 19.09 C 203.301 18.758 203.766 18.259 204.099 17.593 C 204.43 16.928 204.597 16.096 204.597 15.099 Z M 192.424 27.072 L 192.424 40.242 L 182.947 40.242 L 182.947 4.722 C 182.947 4.722 183.278 4.623 183.945 4.423 C 184.743 4.224 185.806 3.991 187.137 3.725 C 188.466 3.458 190.064 3.226 191.927 3.026 C 193.788 2.827 195.85 2.727 198.113 2.727 C 200.507 2.727 202.667 3.026 204.597 3.625 C 206.593 4.157 208.256 4.955 209.587 6.02 C 210.984 7.084 212.046 8.381 212.78 9.911 C 213.443 11.374 213.777 13.037 213.777 14.9 C 213.777 17.294 213.411 19.29 212.68 20.886 C 211.881 22.416 210.817 23.647 209.486 24.578 C 208.223 25.509 206.726 26.173 204.996 26.573 C 203.334 26.905 201.605 27.072 199.809 27.072 C 199.409 27.072 198.811 27.072 198.012 27.072 C 197.147 27.072 196.317 27.072 195.517 27.072 C 194.72 27.072 194.022 27.072 193.423 27.072 C 192.758 27.072 192.424 27.072 192.424 27.072 Z M 249.396 3.525 L 249.396 25.077 C 249.396 30.398 248.1 34.388 245.505 37.049 C 242.976 39.71 238.953 41.04 233.432 41.04 C 227.844 41.04 223.788 39.71 221.259 37.049 C 218.666 34.388 217.369 30.398 217.369 25.077 L 217.369 3.525 L 226.948 3.525 L 226.948 25.775 C 226.948 26.972 227.047 28.07 227.247 29.068 C 227.512 30.065 227.911 30.93 228.444 31.662 C 228.909 32.327 229.575 32.892 230.44 33.358 C 231.238 33.757 232.236 33.956 233.432 33.956 C 234.563 33.956 235.527 33.757 236.326 33.358 C 237.19 32.892 237.855 32.327 238.321 31.662 C 238.853 30.93 239.22 30.065 239.419 29.068 C 239.685 28.07 239.818 26.972 239.818 25.775 L 239.818 3.525 L 249.396 3.525 Z M 254.983 40.242 L 254.983 3.525 L 264.563 3.525 L 264.563 32.061 L 281.723 32.061 L 281.723 40.242 L 254.983 40.242 Z M 286.014 40.242 L 286.014 3.525 L 295.492 3.525 L 295.492 32.061 L 312.653 32.061 L 312.653 40.242 L 286.014 40.242 Z"/>
</svg>